<svg width="403" height="393" viewBox="0 0 403 393" fill="none" xmlns="http://www.w3.org/2000/svg">
<path fill-rule="evenodd" clip-rule="evenodd" d="M96.541 290.785L83.471 278.256C76.283 271.365 70.001 265.727 69.51 265.727C69.02 265.727 53.4 280.582 34.8 298.739L0.98198 331.75L0.423982 345.989C0.116982 353.82 -0.0640184 367.427 0.0209816 376.227L0.17698 392.227L17.796 392.5L35.414 392.772L87.215 341.329L117 311.749L106.77 301.267L96.541 290.785ZM76.677 287.357C76.677 286.539 75.97 285.163 75.106 284.298C74.241 283.434 72.628 282.727 71.521 282.727C70.245 282.727 60.1 291.836 43.842 307.579C29.726 321.248 15.589 334.793 12.427 337.679C7.62698 342.06 6.67698 343.478 6.67698 346.26C6.67698 349.835 9.25298 351.623 12.104 350.028C12.911 349.576 20.683 342.491 29.374 334.282C60.194 305.175 76.677 288.824 76.677 287.357Z" fill="#020F16"/>
<path fill-rule="evenodd" clip-rule="evenodd" d="M178.177 1.60264C144.04 7.91164 116.807 20.4056 91.677 41.2856C55.746 71.1396 32.697 116.127 27.543 166.463C25.902 182.484 27.032 214.722 29.668 227.106C32.367 239.786 38.783 258.958 40.515 259.519C41.268 259.763 50.823 251.012 62.391 239.483L82.929 219.014L80.313 212.474C75.096 199.435 73.511 190.528 72.969 171.227C72.409 151.279 73.552 141.624 78.253 126.591C81.799 115.253 91.527 95.6786 97.62 87.6246C103.604 79.7146 118.592 65.1966 128.217 57.9866C142.851 47.0246 164.204 37.9486 184.213 34.1856C197.593 31.6686 223.669 32.5676 236.677 35.9936C260.568 42.2866 279.945 53.0446 298.752 70.4566C306.366 77.5056 316.029 90.3286 320.057 98.7266L323.174 105.227L323.494 127.461L323.814 149.694L340.704 165.961L357.595 182.227L344.956 194.921L332.318 207.614L336.413 212.056C341.6 217.684 343.677 221.702 343.677 226.112C343.677 231.34 342.198 234.296 336.643 240.169L331.603 245.499L346.89 260.042C355.298 268.041 363.371 275.516 364.83 276.653L367.484 278.72L369.419 275.44C374.683 266.518 383.126 240.497 386.847 221.727C388.795 211.899 389.13 207.029 389.151 188.227C389.178 165.232 388.553 159.473 384.049 141.227C374.26 101.564 356.798 71.8866 328.424 46.6886C317.066 36.6026 307.185 29.7236 292.177 21.4526C275.772 12.4116 260.014 6.72364 240.119 2.66064C225.3 -0.366361 191.913 -0.93636 178.177 1.60264ZM275.475 32.5196C262.354 25.9916 249.856 21.4146 236.177 18.1266C231.108 16.9086 223.661 16.3676 209.177 16.1666C198.177 16.0136 188.052 16.0966 186.677 16.3516C159.529 21.3886 141.175 28.4056 122.908 40.7306C99.213 56.7186 83.465 75.0726 70.114 102.261C57.665 127.61 53.431 154.44 56.64 187.628C57.632 197.885 58.95 200.41 62.694 199.222C64.881 198.528 64.913 198.302 64.056 189.869C62.621 175.761 63.143 149.385 65.052 139.486C70.491 111.288 85.078 84.2656 105.522 64.5186C118.905 51.5906 127.079 45.7276 142.177 38.2236C165.605 26.5806 181.509 22.7376 206.296 22.7306C222.261 22.7256 233.623 24.3686 247.677 28.7136C257.708 31.8156 271.029 37.8596 278.882 42.8736C284.821 46.6656 288.059 46.4316 288.475 42.1806C288.767 39.2026 288.476 38.9876 275.475 32.5196ZM354.368 92.5086C347.729 81.2286 341.878 73.3466 333.119 63.8866C328.697 59.1116 325.744 56.7266 324.25 56.7266C318.115 56.7266 319.578 60.5736 329.927 71.6526C340.514 82.9856 348.159 94.6066 353.806 107.949C355.239 111.335 356.694 114.772 357.668 117.073L358.713 119.543C359.459 121.303 360.351 121.783 362.435 121.543C368.312 120.866 365.855 112.025 354.368 92.5086ZM363.522 159.123C366.075 157.335 366.263 155.456 364.106 153.298C361.225 150.418 357.677 152.126 357.677 156.392C357.677 159.595 360.779 161.044 363.522 159.123Z" fill="#020F16"/>
<path fill-rule="evenodd" clip-rule="evenodd" d="M137.177 81.2206C153.003 65.2006 169.918 56.7766 193.177 53.3306C198.909 52.4816 219.211 53.6616 224.925 55.1766C235.129 57.8816 246.417 62.7236 253.886 67.6016C277.501 83.0216 292.654 109.275 294.361 137.727L294.931 147.227L312.304 164.841C321.859 174.529 329.677 182.869 329.677 183.375C329.677 183.881 327.186 186.755 324.141 189.761C321.096 192.767 317.434 196.916 316.003 198.98C313.605 202.439 313.455 203.259 314.085 209.48C314.735 215.896 315.019 216.481 319.87 221.407L324.971 226.588L319.324 232.828L313.677 239.068V246.296V253.524L320.624 260.964L327.572 268.403L294.557 301.104L276.072 319.414L261.543 333.805L256.029 328.766L250.516 323.727H238.596H226.677V320.274C226.677 315.738 224.974 312.166 221.773 309.991C219.604 308.517 216.055 308.134 200.177 307.662C179.714 307.053 177.133 306.461 174.342 301.737C172.446 298.527 172.159 292.563 173.757 289.577C176.021 285.348 180.111 284.727 205.722 284.727H229.831L232.754 281.804C236.603 277.955 236.742 273.077 233.099 269.651C230.54 267.245 230.327 267.223 204.801 266.727C175.712 266.162 174.712 265.915 172.576 258.783C171.064 253.738 172.72 249.282 177.097 246.612C179.9 244.903 182.5 244.734 206.004 244.731L231.831 244.727L234.879 241.679C237.531 239.027 237.858 238.114 237.396 234.666L236.864 230.701L244.361 227.237C253.81 222.871 262.439 216.676 270.37 208.563C278.339 200.411 283.006 192.529 286.708 180.973L286.954 180.204C289.322 172.812 289.844 171.182 289.383 170.825C289.252 170.724 289.042 170.725 288.774 170.726C288.742 170.726 288.71 170.727 288.677 170.727C288.127 170.727 287.677 171.301 287.677 172.003C287.677 172.705 285.237 178.218 282.255 184.253C272.82 203.348 261.373 214.781 242.177 224.282C227.996 231.302 222.149 232.766 205.604 233.441C189.507 234.097 181.782 232.974 169.88 228.249L161.41 224.886L147.464 238.941L133.518 252.997L138.097 257.646C140.616 260.203 142.677 262.689 142.677 263.17C142.677 263.651 139.262 267.329 135.089 271.344L127.501 278.642L116.08 268L92.174 245.725C93.601 246.909 94.848 246.013 102.391 238.384C110.64 230.042 111.059 229.763 112.877 231.408C114.698 233.056 115.246 232.648 126.951 220.943L139.13 208.764L135.038 204.496C117.414 186.11 108.462 155.288 113.077 128.881C114.961 118.099 119.837 104.419 124.76 96.1026C126.639 92.9286 132.227 86.2316 137.177 81.2206ZM223.165 77.5796C231.684 81.4136 234.755 85.7606 232.723 91.1046C230.78 96.2176 228.12 96.9346 215.244 95.8156C208.903 95.2651 205.58 95.0993 202.441 95.4387V147.939L206.809 143.086C226.059 121.698 228.469 120.157 234.6 125.316C236.922 127.27 237.677 128.737 237.677 131.297C237.677 133.527 236.832 135.14 230.694 141.445C230.694 141.445 233.684 139.486 236.864 141.445C240.044 143.404 237.846 155.015 237.846 155.015L204 187.5L185.5 170.047H161.41C164.28 175.581 168.027 179.819 173.575 184.051C180.386 189.245 189.741 193.6 198.234 195.531L205.677 197.222V205.475C205.677 206.071 205.68 206.628 205.684 207.147C205.704 210.38 205.715 212.18 204.821 213.056C203.697 214.156 201.142 213.794 195.376 212.978L195.371 212.977C194.892 212.909 194.391 212.838 193.866 212.765C193.584 212.725 193.295 212.685 192.999 212.644C167.916 209.17 145.293 190.59 137.209 166.822C129.799 145.034 132.403 123.888 144.742 105.652C150.123 97.6976 162.342 86.6756 170.571 82.3516C181.968 76.3626 189.955 74.6726 205.177 75.0296C216.077 75.2846 218.983 75.6966 223.165 77.5796ZM245.698 105.317C259.486 118.628 265.468 138.06 261.587 156.928C258.973 169.637 248.949 185.047 239.017 191.625C233.403 195.343 230.1 195.634 229.104 192.497C228.536 190.706 229.064 189.77 231.784 187.747C249.229 174.769 257.662 156.448 254.806 137.727C253.172 127.015 248.988 119.124 240.621 110.975C236.81 107.264 233.688 103.697 233.684 103.048C233.675 101.602 236.443 98.7266 237.846 98.7266C238.41 98.7266 241.943 101.693 245.698 105.317Z" fill="#020F16"/>
<path d="M196.395 96.6166C179.625 100.825 167.311 110.404 160.451 124.577C156.562 132.611 156.283 133.776 155.873 143.723C155.472 153.474 155.671 154.995 158.389 162.88C159.299 165.519 160.287 167.882 161.41 170.047H185.5L204 187.5L237.846 155.015C237.846 155.015 240.044 143.404 236.864 141.445C233.684 139.486 230.694 141.445 230.694 141.445C228.413 143.788 225.4 146.78 221.427 150.694C209.88 162.068 204.503 166.704 202.849 166.714C201.242 166.723 196.677 163.102 188.099 155.015C174.372 142.073 173.65 140.6 178.6 135.65C183.379 130.871 185.864 131.707 195.809 141.445L202.441 147.939V95.4387C200.562 95.6418 198.749 96.0259 196.395 96.6166Z" fill="#020F16"/>
<path d="M196.395 96.6166C179.625 100.825 167.311 110.404 160.451 124.577C156.562 132.611 156.283 133.776 155.873 143.723C155.472 153.474 155.671 154.995 158.389 162.88C159.299 165.519 160.287 167.882 161.41 170.047H185.5L204 187.5L237.846 155.015C237.846 155.015 240.044 143.404 236.864 141.445C233.684 139.486 230.694 141.445 230.694 141.445C228.413 143.788 225.4 146.78 221.427 150.694C209.88 162.068 204.503 166.704 202.849 166.714C201.242 166.723 196.677 163.102 188.099 155.015C174.372 142.073 173.65 140.6 178.6 135.65C183.379 130.871 185.864 131.707 195.809 141.445L202.441 147.939V95.4387C200.562 95.6418 198.749 96.0259 196.395 96.6166Z" fill="#E31E24"/>
<path fill-rule="evenodd" clip-rule="evenodd" d="M84.931 249.994C89.841 245.085 90.754 244.546 92.174 245.725L116.08 268L102.901 279.566C101.375 278.28 95.443 272.364 89.719 266.42L79.313 255.613L84.931 249.994ZM105.677 281.905L101.109 286.345L96.541 290.785L106.77 301.267L117 293L105.677 281.905Z" fill="#020F16"/>
<path fill-rule="evenodd" clip-rule="evenodd" d="M84.931 249.994C89.841 245.085 90.754 244.546 92.174 245.725L116.08 268L102.901 279.566C101.375 278.28 95.443 272.364 89.719 266.42L79.313 255.613L84.931 249.994ZM105.677 281.905L101.109 286.345L96.541 290.785L106.77 301.267L117 293L105.677 281.905Z" fill="#E31E24"/>
<path d="M102.901 279.566L105.677 281.905L117 293L106.77 301.267L117 311.749L139.016 289.885L133.258 284.264L127.501 278.642L116.08 268L102.901 279.566Z" fill="#BD1F26"/>
<path d="M276.677 350.352C276.677 350.02 283.066 343.423 292.644 333.805L276.072 319.414L261.543 333.805L276.677 350.352Z" fill="#E1CDC7"/>
<path fill-rule="evenodd" clip-rule="evenodd" d="M292.644 333.805C297.943 328.484 304.218 322.239 310.927 315.619C329.764 297.031 345.436 281.801 345.753 281.775C346.069 281.749 347.419 282.908 348.753 284.352C350.086 285.796 355.227 290.589 360.177 295.004C361.787 296.44 364.1 298.571 366.805 301.104L313.401 352.727L292.644 333.805Z" fill="#020F16"/>
<path fill-rule="evenodd" clip-rule="evenodd" d="M292.644 333.805C297.943 328.484 304.218 322.239 310.927 315.619C329.764 297.031 345.436 281.801 345.753 281.775C346.069 281.749 347.419 282.908 348.753 284.352C350.086 285.796 355.227 290.589 360.177 295.004C361.787 296.44 364.1 298.571 366.805 301.104L313.401 352.727L292.644 333.805Z" fill="#E31E24"/>
<path d="M276.677 350.352C276.677 350.823 284.485 358.991 294.557 369.086C294.869 369.399 295.184 369.714 295.5 370.031L313.401 352.727L292.644 333.805C283.066 343.423 276.677 350.02 276.677 350.352Z" fill="#C32028"/>
<path d="M130.093 331.999C121.575 340.255 114.771 347.508 114.973 348.116C115.464 349.587 129.857 356.852 140.029 360.762C149.71 364.484 166.505 368.969 179.677 371.349C192.571 373.678 222.285 373.676 236.177 371.345C246.336 369.64 259.094 366.405 263.403 364.442C265.709 363.391 265.487 363.07 255.494 353.044L245.213 342.727H234.01C227.848 342.727 221.755 342.327 220.469 341.838C216.825 340.453 211.744 334.684 210.495 330.512L209.36 326.727L195.269 326.719C177.882 326.71 171.288 325.696 156.879 320.814L145.582 316.986L130.093 331.999Z" fill="#020F16"/>
<path fill-rule="evenodd" clip-rule="evenodd" d="M297.501 372.028L318.326 392.767L360.501 392.706L402.677 392.644V364.22V335.795L385.927 319.414C379.712 313.335 372.415 306.356 366.805 301.104L313.401 352.727L295.5 370.031C296.159 370.69 296.826 371.356 297.501 372.028ZM351.022 365.898C353.669 362.973 353.164 357.256 350.042 354.8C348.593 353.66 346.421 352.727 345.216 352.727C339.478 352.727 336.215 362.889 340.9 366.17C343.911 368.279 348.991 368.143 351.022 365.898Z" fill="#020F16"/>
</svg>
