<svg width="371" height="389" viewBox="0 0 371 389" fill="none" xmlns="http://www.w3.org/2000/svg">
<path d="M66.9588 33.8311C63.7548 32.0391 63.0508 28.4351 65.3988 25.8421C67.5308 23.4861 70.5658 23.3811 72.9948 25.5791C75.6468 27.9791 75.2938 31.5701 72.2088 33.5911C69.8648 35.1271 69.3198 35.1521 66.9588 33.8311Z" fill="#020F16"/>
<path d="M22.6018 47.8581C25.3728 46.1131 28.4158 39.9201 29.3258 34.1741C29.8898 30.6161 30.3698 29.9241 32.2758 29.9241C34.2228 29.9241 34.6428 30.5891 35.1828 34.5301C35.9338 40.0071 39.2388 46.2731 42.2178 47.8671C43.3948 48.4971 46.5998 49.5841 49.3408 50.2831C53.1368 51.2521 54.3238 52.0101 54.3238 53.4661C54.3238 54.9581 53.1678 55.6341 49.0568 56.5471C40.0758 58.5411 36.6168 62.1101 35.2248 70.8191C34.6808 74.2201 34.1808 74.9241 32.3098 74.9241C30.4158 74.9241 29.9468 74.2311 29.4088 70.6411C28.1378 62.1671 24.1278 58.3461 14.3238 56.2711C11.3358 55.6381 10.3238 54.9371 10.3238 53.5001C10.3238 52.0091 11.4508 51.3181 15.3238 50.4341C18.0738 49.8061 21.3488 48.6471 22.6018 47.8581Z" fill="#020F16"/>
<path d="M18.2528 98.3531C14.1908 102.414 7.27875 97.6111 9.66075 92.3831C10.5388 90.4551 11.5348 89.9241 14.2668 89.9241C19.3098 89.9241 21.6768 94.9281 18.2528 98.3531Z" fill="#020F16"/>
<path d="M208.93 312.911C213.184 311.73 220.381 305.651 247.255 280.544C258.217 270.303 267.676 261.924 268.276 261.924C268.875 261.924 273.406 265.993 278.345 270.966L287.324 280.009L282.32 284.716C275.648 290.993 216.584 345.472 206.382 354.761C205.237 355.803 204.263 356.745 203.383 357.594C201.718 359.202 200.392 360.483 198.89 361.505C193.001 365.509 184.404 365.531 142.112 365.641H142.104H142.097H142.091H142.086C136.386 365.656 130.074 365.672 123.074 365.7L53.8238 365.977V388.642L46.5738 388.305C42.5868 388.119 38.5318 387.957 37.5648 387.946C35.9058 387.925 35.8198 385.08 36.0648 338.174L36.3238 288.424L44.8238 287.809V348.924H53.9908L53.7048 314.174C53.3898 275.814 53.4368 275.472 59.7438 270.981C65.1248 267.149 71.1938 266.839 134.997 267.137C184.677 267.37 196.799 267.685 198.824 268.796C209.09 274.431 211.476 285.112 204.051 292.195C199.07 296.947 197.786 297.074 156.074 296.965L116.824 296.863V313.924L161.074 313.918C187.537 313.915 206.773 313.51 208.93 312.911Z" fill="#020F16"/>
<path d="M0.0637658 330.924C-0.0782342 299.299 0.0247839 272.848 0.294784 272.143C0.664784 271.176 3.79376 270.931 13.0538 271.143L25.3238 271.424L25.2078 285.424C25.1438 293.124 25.0308 319.575 24.9578 344.205L24.8238 388.986L0.323776 388.424L0.0637658 330.924Z" fill="#020F16"/>
<path fill-rule="evenodd" clip-rule="evenodd" d="M327.613 21.6701L322.468 18.2781C313.921 12.6431 307.499 10.6521 296.264 10.1561C268.703 8.93807 246.184 24.4811 237.2 50.9241C235.773 55.1231 235.339 59.2621 235.366 68.4241C235.397 79.0721 235.707 81.1991 238.116 87.3011C241.387 95.5891 248.074 105.213 254.476 110.849C263.469 118.765 279.76 124.889 291.824 124.889C306.247 124.889 321.767 118.213 332.456 107.411C348.432 91.2661 353.78 68.6881 346.666 47.4241L344.324 40.4241L366.324 19.0501L348.299 0.913068L327.613 21.6701ZM299.757 47.4241L295.318 42.6741C292.876 40.0611 290.693 37.9241 290.467 37.9241C290.241 37.9241 283.147 44.6251 274.702 52.8161L259.349 67.7081L291.399 100.096L322.534 68.6131L318 64.2681C315.506 61.8791 313.143 59.9241 312.749 59.9241C312.354 59.9241 310.554 61.6121 308.749 63.6741C306.944 65.7371 302.255 70.4281 298.33 74.1001L291.194 80.7761L279.539 67.7441L299.757 47.4241Z" fill="#020F16"/>
<path fill-rule="evenodd" clip-rule="evenodd" d="M181.076 13.9341C119.257 20.3641 62.9628 58.3651 36.7048 111.389C25.1068 134.81 18.7228 157.63 16.7928 182.559C15.0028 205.681 16.9628 228.082 22.4878 247.674L25.0968 256.924H35.9818C45.8038 256.924 47.2308 256.688 50.5948 254.503C57.7958 249.829 58.3578 249.798 130.824 250.12L199.324 250.424L204.906 253.165C207.976 254.673 212.431 257.811 214.806 260.139C218.737 263.993 223.79 272.674 223.814 275.615C223.843 279.157 227.191 276.884 239.151 265.203C254.935 249.787 260.265 246.647 271.626 246.07C278.202 245.737 279.564 246.014 285.34 248.857C288.901 250.61 293.09 253.637 294.761 255.663C298.149 259.774 300.824 266.725 300.824 271.421C300.824 276.764 297.89 284.779 294.531 288.611C291.91 291.601 230.667 348.57 208.417 368.715C205.203 371.625 202.796 374.229 203.069 374.502C203.342 374.775 208.461 374.283 214.445 373.408C238.073 369.955 260.576 363.795 276.594 356.395L277.043 356.188L277.715 355.878L277.898 355.793L277.932 355.778C284.666 352.673 287.22 351.496 287.856 349.655C288.245 348.53 287.918 347.158 287.391 344.948L287.304 344.582L287.282 344.488L287.221 344.229C284.551 332.88 285.993 322.476 291.842 310.888C297.357 299.963 306.663 291.936 318.559 287.843C327.618 284.726 327.824 284.834 327.824 292.701V299.479L321.287 302.327C300.77 311.265 293.812 335.009 306.067 354.264C309.57 359.767 317.618 366.266 323.408 368.267L327.324 369.62L327.899 387.924H342.749L343.324 369.816L349.248 367.411C356.562 364.441 363.926 357.432 367.619 349.924C370.012 345.058 370.324 343.271 370.324 334.424C370.324 325.496 370.024 323.813 367.524 318.721C363.964 311.473 356.554 304.758 348.793 301.749L342.824 299.434V286.765L345.85 287.43C348.805 288.079 348.955 287.922 352.26 280.759C358.964 266.228 365.839 241.224 368.306 222.398C370.528 205.453 370.304 180.939 367.801 167.039C365.283 153.057 359.088 133.258 356.22 130.031C355.826 129.587 345.039 139.09 331.021 152.231C323.4 159.374 321.125 160.98 318.975 160.731C317.18 160.523 316.228 159.753 316.027 158.346C315.713 156.148 319.749 152.049 341.534 132.44L352.626 122.456L350.739 118.758C349.702 116.724 348.475 114.826 348.014 114.541C347.552 114.256 343.833 116.985 339.749 120.606C326.796 132.091 318.362 136.699 305.388 139.379C290.1 142.537 275.304 140.609 260.324 133.507C241.708 124.681 228.895 110.653 221.97 91.5141C216.26 75.7321 215.894 60.5571 220.87 45.7891C223.616 37.6361 224.54 35.9241 231.205 26.6341C234.756 21.6851 236.342 18.6921 235.557 18.4181C234.879 18.1811 229.824 17.1011 224.324 16.0171C212.499 13.6891 192.632 12.7311 181.076 13.9341ZM226.689 143.327C223.573 136.649 215.134 128.415 208.092 125.18C199.568 121.265 187.556 120.913 179.417 124.341C171.526 127.664 167.169 131.299 162.098 138.791C156.698 146.767 155.498 151.366 156.06 161.924C156.7 173.933 159.566 179.823 169.622 189.784C178.562 198.641 178.824 199.321 178.824 213.681V223.188L182.246 226.415C186.172 230.118 189.64 231.073 195.324 230.017C204.563 228.301 206.824 224.645 206.824 211.424C206.824 206.315 207.386 201.562 208.216 199.642C208.981 197.872 212.694 193.481 216.466 189.883C230.568 176.434 234.271 159.571 226.689 143.327ZM195.852 75.9761C196.387 76.9751 196.824 83.3771 196.824 90.2031C196.824 101.462 196.633 102.787 194.765 104.477C193.189 105.904 192.311 106.091 191.015 105.275C188.559 103.727 187.957 76.9331 190.326 74.5651C192.123 72.7671 194.453 73.3621 195.852 75.9761ZM164.831 109.424C168.96 109.424 168.45 105.473 163.09 95.9241C159.843 90.1391 157.668 87.3311 156.28 87.1321C151.32 86.4211 151.695 90.3861 157.586 100.924C161.568 108.047 162.742 109.424 164.831 109.424ZM146.108 110.52C150.627 115.248 154.464 119.717 154.634 120.452C155.102 122.467 151.219 124.206 148.956 122.995C146.712 121.794 132.824 107.072 132.824 105.894C132.824 104.755 135.751 101.924 136.929 101.924C137.458 101.924 141.588 105.792 146.108 110.52ZM141.784 137.472C143.932 134.884 141.945 132.35 134.373 128.017C125.362 122.862 123.561 122.331 121.892 124.342C119.835 126.82 121.241 128.577 129.539 133.897C137.806 139.198 139.855 139.796 141.784 137.472ZM135.658 159.521C137.087 160.521 137.823 161.921 137.631 163.271C137.331 165.378 136.964 165.424 120.433 165.424C105.198 165.424 103.433 165.246 102.433 163.611C101.53 162.135 101.762 161.439 103.685 159.861C105.765 158.155 107.672 157.924 119.712 157.924C130.609 157.924 133.841 158.248 135.658 159.521ZM132.803 198.864C140.509 195.312 143.172 192.983 142.653 190.248C142.057 187.107 137.718 187.737 129.324 192.185C122.588 195.754 121.324 196.819 121.324 198.924C121.324 202.629 124.673 202.612 132.803 198.864ZM153.627 205.112C154.002 207.093 141.749 220.335 137.45 222.594C134.913 223.926 134.402 223.93 133.097 222.625C130.763 220.291 132.292 217.673 140.495 209.957C146.5 204.309 148.632 202.88 150.697 203.12C152.189 203.294 153.444 204.147 153.627 205.112ZM158.818 228.769C162.121 223.661 164.824 218.922 164.824 218.238C164.824 217.554 163.894 216.497 162.758 215.889C160.989 214.942 160.236 215.272 157.508 218.189C153.423 222.558 146.7 233.972 147.062 235.924C147.216 236.749 148.572 237.566 150.077 237.74C152.541 238.024 153.408 237.135 158.818 228.769ZM231.895 223.674C238.901 233.397 239.949 237.235 235.734 237.725C233.537 237.98 232.335 236.919 227.809 230.725C221.26 221.763 219.949 218.683 221.757 216.504C222.479 215.635 223.636 214.924 224.329 214.924C225.023 214.924 228.427 218.862 231.895 223.674ZM253.234 223.32C256.837 221.937 254.905 218.172 246.658 210.511C239.118 203.506 235.485 201.597 233.491 203.591C231.694 205.387 233.511 208.126 241.074 215.021C250.755 223.846 251.154 224.118 253.234 223.32ZM256.881 192.174C265.099 196.598 266.636 198.241 264.719 200.551C262.928 202.709 259.895 202.137 251.926 198.137C243.632 193.974 241.722 191.957 243.754 189.508C245.788 187.057 248.34 187.575 256.881 192.174ZM266.193 165.698C286.849 166.014 289.952 165.052 284.824 159.924C282.995 158.095 281.566 157.933 268.074 158.024C249.961 158.146 248.324 158.515 248.324 162.469V165.424L266.193 165.698ZM321.074 197.72C323.325 199.668 323.288 204.763 321.001 207.735C317.119 212.782 308.491 209.539 308.491 203.033C308.491 196.265 315.817 193.172 321.074 197.72ZM340.884 248.924C337.07 248.924 336.935 248.808 336.634 245.251C336.159 239.622 332.824 239.481 332.824 245.091C332.824 247.555 332.443 247.924 329.906 247.924C325.716 247.924 323.824 248.873 323.824 250.973C323.824 252.418 324.729 252.875 328.074 253.117C332.063 253.405 332.343 253.623 332.637 256.674C332.81 258.462 333.372 259.924 333.887 259.924C334.403 259.924 335.161 259.942 335.574 259.963C335.987 259.985 336.549 258.522 336.824 256.713C337.276 253.741 337.685 253.394 341.074 253.114C344.012 252.87 344.824 252.383 344.824 250.864C344.824 249.272 344.116 248.924 340.884 248.924ZM105.906 85.0771C107.282 87.6481 105.424 92.5991 102.766 93.4421C100.727 94.0891 95.9098 91.9371 93.8538 89.4611C92.7318 88.1081 92.8658 87.5081 94.7418 85.5121C97.7008 82.3621 104.315 82.1051 105.906 85.0771ZM168.824 50.9241C175.004 57.1041 185.506 48.1011 179.647 41.6461C176.005 37.6321 172.451 37.3321 168.574 40.7091C166.172 42.8021 166.31 48.4101 168.824 50.9241Z" fill="#020F16"/>
<path fill-rule="evenodd" clip-rule="evenodd" d="M169.846 159.642C169.807 149.493 174.698 141.928 184.324 137.248C188.339 135.296 190.425 134.904 194.912 135.261C201.372 135.774 204.99 137.437 209.654 142.035C219.442 151.685 219.736 165.179 211.179 175.413C211.179 175.413 203.224 179.693 199.324 184.913C194.391 191.514 194 204.825 194 204.825C194 204.825 193.314 204.924 192.926 204.924C190.331 204.924 190.185 204.617 188.525 195.674L186.809 186.424L180.33 180.313C172.595 173.018 169.876 167.658 169.846 159.642ZM191.223 142.183C192.721 144.575 190.054 149.31 186.958 149.754C184.386 150.124 180.824 147.42 180.824 145.098C180.824 140.458 188.752 138.235 191.223 142.183Z" fill="#E31E24"/>
<path d="M196.821 200.092C196.819 199.175 197.763 195.234 198.919 191.334C200.807 184.965 201.547 183.833 206.201 180.198C208.101 178.714 209.761 177.108 211.179 175.413C211.179 175.413 203.224 179.693 199.324 184.913C194.391 191.514 194 204.825 194 204.825C195.923 204.438 196.826 202.907 196.821 200.092Z" fill="#B5191E"/>
<path d="M59 194.913C67.0486 201.761 70 220.413 70 220.413C70 220.413 73.0247 201.669 79.5 194.913C86.2093 187.913 102 187.913 102 187.913C102 187.913 86.1671 185.688 79.5 178.413C72.8121 171.115 70 152.913 70 152.913C70 152.913 66.8927 170.975 59 178.413C52.0588 184.955 37 187.913 37 187.913C37 187.913 52.2616 189.18 59 194.913Z" fill="#E31E24"/>
<path fill-rule="evenodd" clip-rule="evenodd" d="M100.338 110.913C100.338 110.913 98.3406 98.4784 92.8923 93.9131C88.331 90.0909 78 89.2464 78 89.2464C78 89.2464 88.1937 87.2741 92.8923 82.9131C98.2351 77.9542 100.338 65.9131 100.338 65.9131C100.338 65.9131 102.242 78.0478 106.769 82.9131C111.282 87.7631 122 89.2464 122 89.2464C122 89.2464 111.311 89.246 106.769 93.9131C102.386 98.4173 100.338 110.913 100.338 110.913ZM96 91.4131C94.5 90.4131 93.9287 87.4162 95.5 85.4131C96.1026 84.6449 96.6095 84.3132 97.5 83.9131C100.838 82.4131 103.854 82.4713 105.5 85.4131C106.98 88.0586 105.986 90.6779 103.5 92.4131C100.918 94.2154 96 91.4131 96 91.4131Z" fill="#E31E24"/>
<path d="M87 127.913C87 130.674 84.7614 132.913 82 132.913C79.2386 132.913 77 130.674 77 127.913C77 125.152 79.2386 122.913 82 122.913C84.7614 122.913 87 125.152 87 127.913Z" fill="#E31E24"/>
<path d="M153 56.9131C153 59.6745 150.761 61.9131 148 61.9131C145.239 61.9131 143 59.6745 143 56.9131C143 54.1516 145.239 51.9131 148 51.9131C150.761 51.9131 153 54.1516 153 56.9131Z" fill="#E31E24"/>
<path d="M279.124 67.4453L347.401 0L359.95 12.7042L291.673 80.1495L279.124 67.4453Z" fill="#E31E24"/>
<path d="M321.971 50.042L359.669 12.9439L365.872 19.2467L328.173 56.3448L321.971 50.042Z" fill="#020F16"/>
<path fill-rule="evenodd" clip-rule="evenodd" d="M317 236.413C317 236.413 314.049 217.761 306 210.913C299.262 205.18 284 203.913 284 203.913C284 203.913 299.059 200.955 306 194.413C313.893 186.975 317 168.913 317 168.913C317 168.913 319.812 187.115 326.5 194.413C333.167 201.688 349 203.913 349 203.913C349 203.913 333.209 203.913 326.5 210.913C320.025 217.669 317 236.413 317 236.413ZM316 209.913C319.314 209.913 322 205.227 322 201.913C322 198.599 317.814 195.413 314.5 195.413C311.186 195.413 308.5 200.599 308.5 203.913C308.5 207.227 312.686 209.913 316 209.913Z" fill="#E31E24"/>
</svg>
