<svg width="362" height="377" viewBox="0 0 362 377" fill="none" xmlns="http://www.w3.org/2000/svg">
<path d="M63.9946 145.271C68.0596 149.336 68.4846 153.815 65.3816 159.897C61.6266 167.257 53 171 46.5 166.5C43.956 164.499 40.945 164.586 41.5 159.897C41.5 159.897 38.9681 176.807 53 183C68 189.621 82.2458 179.994 84.8046 167.825C86.9142 157.791 82.6255 149.836 74.3946 143.724C63.9946 136 51.3786 143.724 51.3786 143.724C56.6596 140.916 60.0556 141.332 63.9946 145.271Z" fill="#E31E24"/>
<path fill-rule="evenodd" clip-rule="evenodd" d="M159.395 1.94862C143.89 3.91462 121.974 10.3346 106.631 17.4056C79.4557 29.9296 53.0776 52.6536 35.4996 78.6816C24.8136 94.5046 14.0826 121.125 9.22062 143.871C6.12962 158.332 5.87963 196.352 8.78263 210.371C12.0076 225.942 17.3306 241.942 23.4616 254.494C29.7286 267.323 31.5576 269.773 33.6446 268.133C34.3326 267.593 38.4946 265.223 42.8946 262.867C47.2946 260.511 52.6946 257.572 54.8946 256.337C94.8126 233.922 117.855 221.165 126.351 216.774C143.381 207.974 149.698 200.202 147.204 191.121C146.082 187.039 139.426 180.155 95.1877 137.324C67.0447 110.075 66.9777 109.973 66.9277 93.8706C66.8977 84.3146 67.1416 82.9016 69.6426 78.1576C74.9946 68.0046 81.6916 62.4626 92.5026 59.2396C99.3416 57.2006 110.396 57.8926 116.894 60.7676C122.559 63.2726 124.244 64.6546 141.523 80.9566L155.152 93.8136L157.523 91.0316C161.115 86.8186 166.427 83.2036 171.022 81.8466C174.491 80.8216 175.945 80.8926 180.154 82.2906C182.907 83.2046 185.957 84.8346 186.932 85.9116C187.907 86.9896 189.043 87.8706 189.456 87.8706C189.869 87.8706 195.537 82.8486 202.051 76.7116C208.565 70.5736 223.57 56.6766 235.395 45.8286C247.22 34.9806 258.374 24.5516 260.181 22.6526L263.467 19.2016L257.181 16.5456C242.135 10.1906 222.986 4.79664 206.895 2.38264C196.165 0.772643 170.516 0.538622 159.395 1.94862ZM200.946 44.8706C192.462 44.8706 183.395 36.6306 183.395 28.9206C183.395 25.9326 181.677 24.6536 180.978 27.1206C180.783 27.8086 180.116 30.2416 179.497 32.5276C178.033 37.9286 172.962 42.3596 165.891 44.4146C160.01 46.1246 158.643 47.8566 163.145 47.8926C166.59 47.9196 173.344 50.9686 175.607 53.5156C177.942 56.1456 180.395 62.2456 180.395 65.4216C180.395 69.6576 182.781 67.7136 183.621 62.7936C184.89 55.3616 189.624 50.6256 197.891 48.5166C203.263 47.1456 205.17 44.8706 200.946 44.8706ZM138.069 38.8706C142.747 38.8706 145.148 31.7676 141.566 28.5256C139.167 26.3546 136.108 26.4256 134.05 28.6996C130.644 32.4626 133.176 38.8706 138.069 38.8706ZM41.5 159.897C42.222 153.806 46.3906 146.378 51.3786 143.724C51.3786 143.724 63.9946 136 74.3946 143.724C82.6255 149.836 86.9142 157.791 84.8046 167.825C82.2458 179.994 68 189.621 53 183C38.9681 176.807 41.5 159.897 41.5 159.897ZM100.111 202.681C103.46 202.279 105.288 199.515 103.789 197.121C102.145 194.495 97.7646 194.311 96.4266 196.811C94.7806 199.887 96.7856 203.08 100.111 202.681Z" fill="#000F16"/>
<path d="M19.0736 13.5626C18.8026 14.5566 18.2987 16.7206 17.9537 18.3706C16.2737 26.4006 12.7936 29.9346 5.24458 31.2756C0.461575 32.1246 -1.24041 34.0926 0.931587 36.2646C1.81459 37.1476 3.65257 37.8706 5.01557 37.8706C10.8606 37.8706 16.8916 43.3946 17.9556 49.7216C19.0576 56.2766 19.4506 57.0036 21.7066 56.6786C23.3596 56.4406 24.0076 55.4206 24.5556 52.1966C25.9806 43.8066 31.3147 37.8836 37.4537 37.8746C40.7787 37.8696 43.8796 35.5757 43.1456 33.6637C42.8066 32.7797 40.6566 31.9046 37.8976 31.5256C29.6836 30.4006 26.2556 26.6196 24.6076 16.8706C24.0096 13.3316 23.3896 12.3046 21.7066 12.0626C20.3196 11.8626 19.3926 12.3896 19.0736 13.5626Z" fill="#000F16"/>
<path fill-rule="evenodd" clip-rule="evenodd" d="M314.895 89.6516C308.845 95.5676 291.97 111.63 277.395 125.344C262.82 139.058 242.951 158.174 233.242 167.825C218.373 182.604 215.41 186.041 214.453 189.621C212.853 195.611 214.575 201.395 219.29 205.871C221.318 207.796 239.159 218.333 258.936 229.286C278.713 240.239 302.867 253.626 312.611 259.036C322.354 264.445 330.679 268.865 331.111 268.857C332.408 268.834 340.101 253.766 344.249 243.123C351.724 223.941 355.971 203.613 357.059 181.799C358.607 150.796 349.385 115.499 332.384 87.3526C329.566 82.6876 326.953 78.8756 326.578 78.8826C326.202 78.8886 320.945 83.7346 314.895 89.6516ZM324.94 131.416C327.848 128.509 328.012 126.806 325.645 124.069C322.933 120.932 320.071 120.551 317.052 122.926C313.666 125.59 313.457 130.1 316.618 132.314C319.75 134.508 322.103 134.254 324.94 131.416ZM315.463 164.566C302.955 163.084 293.395 152.628 293.395 140.428C293.395 137.95 292.431 137.169 291.062 138.538C290.695 138.904 290.395 140.173 290.395 141.356C290.395 145.403 287.348 153.773 284.751 156.859C281.472 160.757 277.354 162.897 270.472 164.281C267.489 164.88 264.895 165.842 264.706 166.418C264.518 166.993 267.01 168.011 270.245 168.679C281.029 170.906 288.817 179.192 290.069 189.769C290.402 192.575 291.183 194.871 291.805 194.871C292.428 194.871 293.453 192.158 294.083 188.842C296.46 176.336 302.01 170.614 313.707 168.61C321.615 167.256 322.425 165.39 315.463 164.566ZM273.838 205.648C275.82 202.819 275.815 200.434 273.824 198.442C272.959 197.578 271.191 196.871 269.895 196.871C268.599 196.871 266.831 197.578 265.966 198.442C265.102 199.307 264.395 201.075 264.395 202.371C264.395 207.549 270.921 209.814 273.838 205.648Z" fill="#000F16"/>
<path d="M158.384 216.716C119.552 238.326 93.5136 252.85 74.3946 263.566C63.6696 269.577 47.9196 278.284 39.3946 282.914C24.3486 291.085 23.6746 291.341 16.3946 291.642C12.2696 291.813 7.89064 292.165 6.66264 292.426C3.82964 293.028 1.15557 298.07 1.96357 301.289C3.08257 305.748 5.22263 306.616 16.9466 307.361L27.9977 308.064L37.9466 302.849C50.8176 296.102 143.378 244.771 148.895 241.321C153.929 238.172 180.715 223.871 181.578 223.871C182.111 223.871 199.725 233.606 220.721 245.504C258.314 266.807 311.02 295.654 327.123 303.74C335.03 307.71 335.719 307.871 344.808 307.871C356.908 307.871 358.949 307.092 360.51 301.881C361.605 298.225 361.522 297.518 359.71 295.086C357.821 292.551 357.118 292.352 349.127 292.083C341.13 291.815 339.954 291.48 331.231 286.996C310.899 276.542 250.687 243.221 215.395 222.891C190.212 208.384 185.157 205.871 181.163 205.871C178.844 205.871 172.124 209.07 158.384 216.716Z" fill="#000F16"/>
<path d="M174.893 245.258C173.242 245.977 157.717 254.666 140.393 264.567C93.1526 291.565 90.5916 292.869 84.8046 292.881C76.9776 292.896 70.4726 296.474 67.1406 302.596C59.9516 315.806 67.7296 331.022 81.7756 331.225C91.4216 331.365 98.5036 324.238 99.3946 313.496L99.8946 307.468L108.895 302.353C123.754 293.91 158.74 274.239 161.048 273.031C163.138 271.937 163.199 272.074 163.106 277.637C162.893 290.333 171.977 298.838 184.469 297.638C194.028 296.719 200.385 289.326 200.391 279.121C200.393 275.684 200.671 272.871 201.008 272.871C201.345 272.871 213.832 279.772 228.758 288.207C243.683 296.642 257.695 304.537 259.895 305.751C263.697 307.849 263.895 308.195 263.895 312.743C263.895 323.521 273.926 332.814 283.938 331.312C295.594 329.564 302.658 315.536 297.505 304.371C294.046 296.877 288.971 293.871 279.78 293.871C276.657 293.871 272.918 293.163 271.095 292.228C266.259 289.744 233.422 271.092 210.952 258.065C185.482 243.298 182.125 242.106 174.893 245.258Z" fill="#000F16"/>
<path d="M304.377 318.121C304.367 319.358 303.056 322.733 301.464 325.621L298.57 330.871H327.827C356.052 330.871 357.151 330.799 358.94 328.821C359.981 327.671 360.795 325.28 360.795 323.371C360.795 321.462 359.981 319.071 358.94 317.921C357.159 315.953 356.028 315.871 330.74 315.871H304.395L304.377 318.121Z" fill="#000F16"/>
<path d="M209.08 300.399C207.532 302.34 203.819 305.308 200.83 306.995C197.841 308.682 195.395 310.401 195.395 310.815C195.395 311.229 197.22 312.39 199.451 313.396C203.704 315.314 213.792 325.397 214.877 328.813C215.481 330.718 216.556 330.816 240.037 331.087C253.527 331.243 264.724 331.211 264.92 331.015C265.115 330.819 264.416 329.737 263.367 328.61C262.317 327.484 260.616 324.044 259.587 320.967L257.715 315.371L251.805 315.367C245.187 315.363 242.392 314.134 224.251 303.255C218.397 299.744 213.222 296.871 212.751 296.871C212.28 296.871 210.628 298.459 209.08 300.399Z" fill="#000F16"/>
<path d="M134.895 305.406L119.895 314.869L112.645 314.87C106.219 314.871 105.395 315.084 105.395 316.749C105.395 319.359 102.993 324.842 100.413 328.121L98.2496 330.871H148.027L150.314 326.801C153.492 321.146 158.564 316.326 164.501 313.317L169.54 310.764L163.717 306.997C160.515 304.925 156.635 301.574 155.094 299.551C153.554 297.527 151.754 295.887 151.094 295.907C150.435 295.927 143.145 300.201 134.895 305.406Z" fill="#000F16"/>
<path d="M4.61762 317.428C1.65262 319.504 1.5256 326.002 4.3946 328.871C6.3046 330.781 7.7276 330.871 35.8646 330.871H65.3346L62.8656 327.234C61.5086 325.233 59.9296 321.858 59.3576 319.734L58.3176 315.871H32.5787C10.9017 315.871 6.48862 316.117 4.61762 317.428Z" fill="#000F16"/>
<path d="M218.56 345.532C218.425 349.195 218.081 352.57 217.796 353.032C217.321 353.8 301.239 354.538 340.395 354.11C356.793 353.931 356.909 353.914 359.145 351.345C362.072 347.981 361.999 344.384 358.94 341.326L356.486 338.871H218.806L218.56 345.532Z" fill="#000F16"/>
<path d="M212.957 364.751C212.127 366.356 209.081 369.74 206.189 372.27L200.929 376.871H278.551C351.008 376.871 356.314 376.755 358.281 375.121C361.412 372.522 361.997 367.836 359.566 364.834L357.572 362.371L214.466 361.832L212.957 364.751Z" fill="#000F16"/>
<path d="M5.13062 340.121C1.26962 343.053 1.00459 349.643 4.62659 352.649C5.70659 353.545 23.5126 353.91 75.7826 354.107C145.074 354.369 145.495 354.359 144.96 352.371C144.664 351.271 144.416 347.784 144.409 344.621L144.395 338.871H75.5856C22.0836 338.871 6.41062 339.149 5.13062 340.121Z" fill="#000F16"/>
<path d="M5.62958 362.908C3.43858 363.788 1.3946 367.443 1.3946 370.482C1.3946 371.296 2.49962 373.066 3.84962 374.416L6.30363 376.871H161.851L158.118 373.794C156.065 372.102 153.016 368.727 151.342 366.294L148.299 361.871L78.0967 361.934C38.4307 361.97 6.90958 362.394 5.62958 362.908Z" fill="#000F16"/>
<path fill-rule="evenodd" clip-rule="evenodd" d="M187.044 325.621C187.044 325.621 187.917 341.174 181.578 347.027C175.632 352.516 161.31 351.345 161.31 351.345C162.297 357.108 165.353 361.254 171.121 364.912C179.235 370.058 185.795 370.052 193.501 364.893C201.866 359.292 205.79 349.923 203.377 341.308C201.097 333.166 194.594 327.374 187.044 325.621Z" fill="#000F16"/>
<path d="M175.154 326.294C169.288 328.388 166.704 330.488 163.691 335.614C161.361 339.578 160.904 341.48 160.95 347.027C160.962 348.564 161.08 349.998 161.31 351.345C161.31 351.345 175.632 352.516 181.578 347.027C187.917 341.174 187.044 325.621 187.044 325.621C183.212 324.731 179.11 324.882 175.154 326.294Z" fill="#E31E24"/>
<path d="M201.395 136.941C201.395 139.06 193.256 148.235 187.995 152.046C179.04 158.533 165.986 153.726 162.443 142.637C160.807 137.516 161.677 135.468 168.955 127.299L175.256 120.227L164.418 108.371L159.471 113.621C156.75 116.509 154.18 118.871 153.76 118.871C153.34 118.871 143.749 109.692 132.446 98.4736C114.766 80.9256 111.279 77.9116 107.486 76.8926C92.1236 72.7656 77.6326 89.0416 84.6846 102.504C85.5866 104.228 103.427 122.293 124.329 142.65C151.506 169.118 163.695 180.325 167.114 181.989C172.85 184.779 183.425 185.669 189.054 183.834C190.829 183.255 192.527 182.501 194.5 181.278C194.5 181.278 185.623 182.492 180.154 181.278C175.512 180.248 168.955 176.5 168.955 176.5L128 134.5C128 134.5 126.273 130.083 128 128.5C129.583 127.049 133.5 128.5 133.5 128.5L167.114 159C167.114 159 177.112 162.756 183.621 162C189.181 161.355 197 156.859 197 156.859L301.129 59.1562C299.487 60.0966 298.299 59.7845 295.982 58.7286L293.475 57.5866L205 141.356L201.395 136.941Z" fill="#E31E24"/>
<path d="M280.643 26.3626C278.854 27.1396 273.904 31.0476 269.643 35.0476C253.072 50.5986 187.8 114.148 186.123 116.363C184.353 118.7 184.36 118.712 192.873 126.965C196.608 130.587 199.803 134.174 200.946 135.958L302.283 39.5C301.82 34.1581 298.626 29.3337 292.994 26.7756C288.114 24.5596 285.028 24.4566 280.643 26.3626Z" fill="#E31E24"/>
<path fill-rule="evenodd" clip-rule="evenodd" d="M308.414 23.8706C308.415 13.8336 314.725 4.43664 323.634 1.20564C328.292 -0.483359 335.846 -0.385355 340.177 1.42164C345.093 3.47164 350.202 8.42762 352.495 13.3706C353.199 14.8886 353.714 16.9572 354.022 19.2016C354.022 19.2016 350.125 24.5429 346.5 26.3626C343.622 27.8076 341.008 27.1631 338.352 26.5084C335.856 25.8929 333.323 25.2684 330.5 26.3626C323.119 29.2235 317.052 41.529 317.052 41.529C311.929 37.1371 308.413 30.7098 308.414 23.8706Z" fill="#E31E24"/>
<path d="M335.527 46.9346C344.055 45.1076 350.268 39.7426 353.339 31.5556C354.439 28.6233 354.624 23.5783 354.022 19.2016C354.022 19.2016 350.125 24.5429 346.5 26.3626C343.622 27.8076 341.008 27.1631 338.352 26.5084C335.856 25.8929 333.323 25.2684 330.5 26.3626C323.119 29.2235 317.052 41.529 317.052 41.529C322.226 45.965 329.04 48.3246 335.527 46.9346Z" fill="#68161D"/>
<path d="M224.401 154.403C236.783 142.286 259.589 120.538 275.081 106.076C315.857 68.0116 318.546 64.8176 316.954 56.3346C316.319 52.9506 312.048 46.8706 310.306 46.8706C309.805 46.8706 309.395 47.9616 309.395 49.2956C309.395 50.2886 308.763 51.6097 307.593 53.1146V65.4216C307.593 65.4216 237 131.416 226 142.637C222.5 148.5 224.401 154.403 224.401 154.403Z" fill="#68161D"/>
<path d="M293.475 57.5866L297.411 53.1146C301.11 48.9126 302.675 44.021 302.283 39.5L200.946 135.958C201.237 136.412 201.395 136.749 201.395 136.941L205 141.356L293.475 57.5866Z" fill="#000F16"/>
<path d="M307.593 53.1146C306.939 53.9556 306.118 54.854 305.145 55.7846C303.367 57.4845 302.158 58.5666 301.129 59.1562L197 156.859C197 156.859 189.181 161.355 183.621 162C177.112 162.756 167.114 159 167.114 159L133.5 128.5C133.5 128.5 129.583 127.049 128 128.5C126.273 130.083 128 134.5 128 134.5L168.955 176.5C168.955 176.5 175.512 180.248 180.154 181.278C185.623 182.492 194.5 181.278 194.5 181.278C199.931 177.913 207.445 170.996 224.401 154.403C224.401 154.403 222.5 148.5 226 142.637C237 131.416 307.593 65.4216 307.593 65.4216V53.1146Z" fill="#000F16"/>
<path d="M64 220C64 226.627 58.6274 232 52 232C45.3726 232 40 226.627 40 220C40 213.373 45.3726 208 52 208C58.6274 208 64 213.373 64 220Z" fill="#E31E24"/>
<path d="M330 220C330 224.971 325.971 229 321 229C316.029 229 312 224.971 312 220C312 215.029 316.029 211 321 211C325.971 211 330 215.029 330 220Z" fill="#E31E24"/>
</svg>
