<svg width="366" height="372" viewBox="0 0 366 372" fill="none" xmlns="http://www.w3.org/2000/svg">
<path d="M66.436 21.6254C60.63 21.6254 57.501 14.0444 61.488 9.63838C65.317 5.40738 73 8.52636 73 14.3114C73 17.6264 69.412 21.6254 66.436 21.6254Z" fill="#020F16"/>
<path d="M302.455 20.1704C299.456 17.1724 299.351 14.7204 302.073 11.2604C306.328 5.85039 314 8.72141 314 15.7234C314 22.3034 307.204 24.9204 302.455 20.1704Z" fill="#020F16"/>
<path d="M4.665 38.7334C7.823 32.7264 12.795 28.2034 18.627 26.0324C28.345 22.4144 41.044 26.4694 46.97 35.0824C55.342 47.2504 52.21 63.1634 39.831 71.3564C36.068 73.8464 34.773 74.1254 26.995 74.1254C19.11 74.1254 17.909 73.8573 13.448 71.0993C6.237 66.6403 2.618 60.2593 2.176 51.2223C1.871 44.9813 2.171 43.4744 4.665 38.7334Z" fill="#020F16"/>
<path d="M126 351.563C126 345.808 130.841 342.299 157.035 329.071C170.491 322.275 182.107 316.695 182.848 316.67C183.589 316.645 195.544 322.209 209.415 329.035C235.859 342.047 241 345.656 241 351.209C241 354.517 238.566 359.115 235.783 361.064C231.193 364.279 227.204 363.126 204.714 352.081L183.244 341.537L162.041 352.081C139.64 363.221 136.39 364.15 130.99 360.96C127.727 359.033 126 355.78 126 351.563Z" fill="#020F16"/>
<path d="M27.571 325.054C25.588 323.07 25.597 322.171 27.621 320.147C28.759 319.009 30.624 318.615 33.871 318.825C37.836 319.082 38.547 319.456 38.827 321.43C39.006 322.698 38.614 324.385 37.954 325.18C36.351 327.112 29.547 327.03 27.571 325.054Z" fill="#020F16"/>
<path d="M325.863 326.625C317.661 326.625 314.459 323.518 319.223 320.182C321.872 318.326 331.06 318.085 332.8 319.825C336.111 323.136 332.552 326.625 325.863 326.625Z" fill="#020F16"/>
<path d="M55.524 331.919C55.872 329.832 56.344 327.531 56.573 326.805C57.324 324.432 61.472 325.88 61.785 328.625C61.942 330 62.77 333.047 63.626 335.396C65.29 339.966 67.545 341.62 74.75 343.559C81.5 345.375 80.024 348.592 71.726 350.149C67.171 351.003 63.345 355.215 62.408 360.404C61.532 365.259 60.262 367.625 58.532 367.625C57.046 367.625 56.5 366.348 55.448 360.408C54.533 355.243 51.153 352.016 44.691 350.137C36.236 347.679 36.164 344.93 44.5 342.836C50.544 341.317 54.634 337.267 55.524 331.919Z" fill="#020F16"/>
<path d="M13 345.625C10.761 343.386 10.299 337.726 12.2 335.825C14.258 333.767 19.708 334.369 21.443 336.848C23.532 339.829 23.404 341.842 20.927 344.99C18.454 348.135 15.728 348.353 13 345.625Z" fill="#020F16"/>
<path d="M342.272 346.625C336.833 346.625 334.033 340.456 337.655 336.454C339.685 334.21 344.307 334.075 346.429 336.196C349.824 339.592 347.02 346.625 342.272 346.625Z" fill="#020F16"/>
<path d="M303.635 350.552C300.024 347.712 299.936 341.598 303.455 338.08C304.805 336.73 306.852 335.625 308.004 335.625C310.875 335.625 315.624 338.202 316.379 340.17C319.706 348.841 310.743 356.144 303.635 350.552Z" fill="#020F16"/>
<path d="M21 365.382C21 364.227 21.745 362.46 22.655 361.454C24.827 359.054 28.504 359.129 31 361.625C33.407 364.032 33.501 365.465 31.443 368.402C28.493 372.614 21 370.447 21 365.382Z" fill="#020F16"/>
<path d="M333.223 370.068C330.583 368.22 330.239 363.529 332.571 361.196C334.595 359.173 336.875 359.202 339.171 361.28C341.571 363.452 341.496 367.129 339 369.625C336.592 372.033 336.083 372.072 333.223 370.068Z" fill="#020F16"/>
<path fill-rule="evenodd" clip-rule="evenodd" d="M0 295.721L21.017 295.564C23.3233 295.547 25.5196 295.545 27.571 295.557V220.051L0 219.943V295.721ZM40.5 220.102V295.937C42.0816 296.06 43.051 296.209 43.267 296.379C43.945 296.913 52.375 301.4 62 306.351C71.625 311.301 88.326 319.908 99.113 325.478L118.727 335.606L139.938 325.062C151.604 319.264 162.313 314.076 163.737 313.535C165.218 312.972 165.935 312.193 165.413 311.716C164.599 310.971 101.53 276.942 91.5 271.836C85.585 268.824 83 265.996 83 262.538C83 258.76 87.205 254.625 91.047 254.625C92.604 254.625 103.952 259.846 117.151 266.635C129.993 273.24 141.889 279.154 143.587 279.777C152.768 283.144 163.568 274.04 161.51 264.668C160.359 259.431 157.22 256.887 142.225 249.041C134.126 244.803 120.244 237.351 111.375 232.481C109.19 231.282 107.256 230.199 105.511 229.222C99.6434 225.937 95.9094 223.846 91.9219 222.513C84.943 220.181 77.188 220.17 55.8602 220.142H55.8584C52.2349 220.137 48.2197 220.132 43.75 220.114L40.5 220.102Z" fill="#020F16"/>
<path fill-rule="evenodd" clip-rule="evenodd" d="M283 220.224C278.049 221.157 271.358 224.021 263.589 228.532C259.238 231.058 245.329 238.525 232.681 245.125C207.457 258.286 205.53 259.849 205.645 267.043C205.774 275.143 213.207 281.546 220.847 280.138C224.138 279.532 265.674 259.323 270.473 255.994C277.78 250.923 288.516 260.479 282.991 267.136C282.253 268.025 275.991 271.589 269.075 275.056C243.981 287.636 199.899 311.657 200.417 312.469C200.647 312.83 211.136 318.249 223.727 324.513L246.618 335.9L255.059 331.822C259.702 329.579 271.825 323.307 282 317.883C322.948 296.057 328 293.493 328 294.538C328 295.282 333.954 295.625 346.898 295.625H365.796L365.531 277L329.923 275.056V220.325C308.239 220.109 284.191 220 283 220.224Z" fill="#020F16"/>
<path fill-rule="evenodd" clip-rule="evenodd" d="M168.492 0.587357C147.655 2.45636 125.049 9.0294 105.363 18.9424C96.279 23.5174 78.801 35.2004 72.307 41.0394L67.264 45.5734L66.795 55.8493C66.253 67.7184 64.575 71.9573 57.371 79.6593C52.817 84.5283 47.186 87.5423 38.611 89.7013C33.829 90.9063 33.693 91.0504 30.282 98.5254C18.701 123.912 13.566 154.218 15.801 184.006C16.434 192.437 17.236 200.075 17.583 200.98C18.146 202.448 20.98 202.625 43.857 202.624L69.5 202.622L71.306 196.478C75.174 183.316 85.974 164.761 96.816 152.648L101.719 147.171L94.366 139.137C83.583 127.355 78.455 120.226 73.437 110.038C64.083 91.0504 64.313 77.3104 74.174 66.0804C84.909 53.8534 107.45 54.3804 136.465 67.5364L143.083 70.5373L143.874 68.3313C148.198 56.2703 149.986 52.3804 154.031 46.2384C156.608 42.3264 159.845 38.0904 161.226 36.8254L163.736 34.5244L164.01 37.3777C164.338 27.1723 172.715 19 183 19C192.367 19 200.151 25.7781 201.714 34.6971C201.766 34.65 201.819 34.6254 201.873 34.6254C203.549 34.6254 210.721 43.2983 214.738 50.1833C216.966 54.0013 219.847 60.1634 221.141 63.8754C222.435 67.5874 223.847 70.6254 224.28 70.6254C224.713 70.6254 227.189 69.5674 229.783 68.2734C243.589 61.3894 257.773 57.6614 270.239 57.6404C285.257 57.6144 293.683 62.1723 299.15 73.2793C301.906 78.8763 302.423 81.0423 302.436 87.0243C302.444 90.9293 301.854 96.4884 301.125 99.3774L299.8 104.629L294.455 99.8774C289.537 95.5044 289.104 94.7664 289.033 90.6254C288.923 84.1964 285.977 78.3954 281.368 75.5304C277.853 73.3454 276.45 73.1294 266 73.1714C253.817 73.2194 249.757 74.0843 234.653 79.8503L226.807 82.8453L227.44 86.4853C227.789 88.4873 228.333 96.5753 228.65 104.459L229.227 118.794L232.936 124.959C238.344 133.949 239.9 138.595 241.192 149.603C242.187 158.084 242.108 160.666 240.625 168.216C239.064 176.16 234.56 187.132 230.454 192.994C229.529 194.314 229 197.537 229 201.848C229 205.575 228.757 208.625 228.46 208.625C228.163 208.625 226.156 207.725 224 206.625C218.957 204.052 217.233 204.107 212.982 206.973C205.805 211.814 198.236 213.887 185.91 214.388C172.611 214.93 166.457 213.63 156.409 208.155L150.317 204.837L146.008 207.731C138.532 212.752 137 211.265 137 198.985C137 194.526 136.406 192.69 133.564 188.36C127.622 179.307 125.648 171.841 125.569 158.125C125.488 144.028 127.493 136.141 133.832 125.625L137.749 119.125L138.233 104.125C138.498 95.8754 139.23 87.8594 139.857 86.3124C140.989 83.5224 140.944 83.4743 134.386 80.5013C119.655 73.8213 98.584 70.6834 90.671 73.9894C88.876 74.7394 86.145 76.8524 84.604 78.6844C82.006 81.7714 81.828 82.5324 82.174 89.0704C82.837 101.634 91.471 116.342 110.151 136.729L118.951 146.333L112.634 153.729C109.16 157.797 103.937 164.472 101.027 168.564C95.343 176.555 86.388 194.142 85.403 199.247L84.801 202.37L90.531 203.086C97.06 203.901 107.029 208.722 122.5 218.545L132.5 224.894L152.877 217.761L156.006 225.943C157.728 230.443 159.668 235.857 160.318 237.974C161.191 240.815 162.453 242.31 165.143 243.689C167.146 244.716 170.355 247.39 172.274 249.632C183.173 262.365 177.633 284.325 162.161 289.719C160.422 290.325 159 291.129 159 291.506C159 291.883 164.412 294.868 171.027 298.138L183.054 304.085L194.757 297.914C201.194 294.519 206.591 291.353 206.749 290.878C206.908 290.402 205.506 289.283 203.635 288.391C198.288 285.841 193.404 281.016 191.005 275.913C189.219 272.113 188.87 269.871 189.163 264.077C189.633 254.771 193.323 248.305 200.264 244.625C204.941 242.146 205.018 242.021 209.581 229.625C212.111 222.75 214.305 216.998 214.456 216.843C214.607 216.688 219.641 218.313 225.642 220.454L236.554 224.346L240.027 221.915C241.937 220.578 248.766 216.346 255.203 212.511C266.47 205.799 267.645 205.36 280.657 203.021C283.42 202.525 283.06 200.924 277.501 189.002C271.753 176.675 265.464 167.424 252.568 152.326L247.614 146.526L263.5 130.666L265.728 131.793C261.025 128.134 258 122.42 258 116C258 104.954 266.954 96 278 96C289.046 96 298 104.954 298 116C298 127.046 289.046 136 278 136C276.118 136 274.296 135.74 272.569 135.254L274.81 136.387L269.905 141.218C267.207 143.876 265 146.448 265 146.934C265 147.42 267.745 150.812 271.1 154.472C281.856 166.203 293.278 185.517 297.065 198.375L298.317 202.625H325.591C350.698 202.625 352.907 202.486 353.395 200.875C356.348 191.114 356.839 164.264 354.375 147.307C352.315 133.132 347.294 114.71 342.335 103.125L338.482 94.1254L332.491 93.5243C320.615 92.3323 312.019 86.4723 306.903 76.0793C303.516 69.2003 302.602 60.9714 304.241 52.1254L304.983 48.1254L297.241 41.9814C280.531 28.7204 265.833 19.9974 249 13.3514C222.15 2.7494 194.049 -1.70564 168.492 0.587357ZM63.618 142.915C64.133 140.231 63.736 139.207 61.194 136.665C57.09 132.561 53.063 132.573 49.589 136.702C48.165 138.394 47 140.904 47 142.279C47 145.552 52.086 150.625 55.367 150.625C58.795 150.625 62.869 146.818 63.618 142.915ZM310.716 150.435C314.065 150.033 315.893 147.269 314.394 144.875C312.75 142.249 308.37 142.065 307.032 144.565C305.386 147.641 307.391 150.834 310.716 150.435ZM326.288 181.065C333.331 178.931 335.234 171.682 329.923 167.214C326.063 163.966 322.612 163.922 319.455 167.08C316.757 169.777 316.183 174.978 318.282 177.712C320.235 180.256 323.897 181.79 326.288 181.065Z" fill="#020E16"/>
<path d="M166.73 50.3754C163.504 53.9494 155.915 71.4314 153.6 80.6254C151.133 90.4184 149.175 107.625 150.527 107.625C151.729 107.625 170.951 98.1884 170.977 97.5854C170.99 97.2894 167.824 95.3314 163.943 93.2344C157.06 89.5164 156.902 89.3453 157.57 86.2743C159.01 79.6533 159.753 78.5784 162.22 79.5464C165.024 80.6464 177.937 87.7673 180.937 89.8683C183 91.3133 183.681 91.0974 192.316 86.2494C197.367 83.4134 202.724 80.5534 204.221 79.8934C206.85 78.7354 206.974 78.8203 207.905 82.4103L207.98 82.6996C208.902 86.251 209.363 88.0242 208.796 89.3628C208.231 90.6976 206.645 91.6002 203.478 93.4028L203.22 93.5494C199.765 95.5164 196.913 97.5614 196.881 98.0934C196.849 98.6254 199.889 100.303 203.635 101.82C207.382 103.338 211.732 105.53 213.302 106.69C214.873 107.851 216.427 108.531 216.757 108.201C217.605 107.353 215.262 88.3074 213.426 81.1254C210.916 71.3074 207.228 62.4023 202.48 54.7013C200.46 51.426 199.373 49.5859 198.948 48.3316C195.561 53.549 189.684 57 183 57C176.688 57 171.096 53.9224 167.64 49.1861C167.477 49.5159 167.172 49.8857 166.73 50.3754Z" fill="#020E16"/>
<path d="M226.754 154.185C226.63 151.932 226.391 149.795 226.028 147.76C224.929 142.616 222.931 137.805 220.205 133.5C220.205 133.5 217.974 146.038 213.302 152.326C203.903 164.978 194.5 171 180 180.043C173.095 184.35 171.75 198.728 171.75 198.728C187.9 203.256 206.479 198.36 218.061 183.589C222.722 177.452 225.809 170.052 226.72 161.995C226.903 159.579 226.909 157 226.754 154.185Z" fill="#C71C2A"/>
<path fill-rule="evenodd" clip-rule="evenodd" d="M170.9 115.181C155.228 120.008 143.647 133.83 140.781 151.129C139.384 159.558 140.764 167.672 145.088 176.456C150.854 188.168 160.737 195.639 171.75 198.728C171.75 198.728 173.095 184.35 180 180.043C194.5 171 203.903 164.978 213.302 152.326C217.974 146.038 220.205 133.5 220.205 133.5C219.435 132.283 218.606 131.105 217.723 129.973C215.051 126.872 211.736 124.002 207.709 121.239C197.238 114.058 182.449 111.624 170.9 115.181ZM170.545 137.17C173.251 134.465 173.662 131.829 171.75 129.456C169.891 127.149 167.577 126.653 164.893 127.987C162.033 129.409 159.793 135.319 161.145 137.875C162.528 140.49 167.606 140.11 170.545 137.17Z" fill="#E31E24"/>
<path fill-rule="evenodd" clip-rule="evenodd" d="M164.222 39.5854C164.499 42.4654 165.484 45.5034 166.509 46.6354C167.651 47.8974 168.01 48.4388 167.64 49.1861C171.096 53.9224 176.688 57 183 57C189.684 57 195.561 53.549 198.948 48.3316C198.499 47.006 198.791 46.3348 199.505 45.3154C200.327 44.1414 201 41.2554 201 38.9024C201 36.8163 201.309 35.0662 201.714 34.6971C200.151 25.7781 192.367 19 183 19C172.715 19 164.338 27.1723 164.01 37.3777L164.222 39.5854ZM175.174 36.6254C178.841 36.6254 181.397 30.4224 178.8 27.8254C176.065 25.0904 170 27.8294 170 31.7994C170 33.6894 173.147 36.6254 175.174 36.6254Z" fill="#E31E24"/>
<path fill-rule="evenodd" clip-rule="evenodd" d="M278 136C289.046 136 298 127.046 298 116C298 104.954 289.046 96 278 96C266.954 96 258 104.954 258 116C258 122.42 261.025 128.134 265.728 131.793L272.569 135.254C274.296 135.74 276.118 136 278 136ZM277.43 113.052C279.288 111.194 279.498 106.523 277.8 104.825C274.4 101.425 265.482 105.93 266.664 110.45C268.004 115.572 273.566 116.916 277.43 113.052Z" fill="#E31E24"/>
<path d="M365.267 258.375C364.975 237.888 364.684 221.05 364.619 220.958C364.478 220.761 348.024 220.506 329.923 220.325V275.056L365.531 277L365.267 258.375Z" fill="#E31E24"/>
<path d="M27.571 220.051V295.557C33.2202 295.589 37.7713 295.724 40.5 295.937V220.102L27.571 220.051Z" fill="#E31E24"/>
<path fill-rule="evenodd" clip-rule="evenodd" d="M327.346 77.0223C321.392 73.3243 318.857 68.5584 318.857 61.0594C318.857 56.5393 320.399 52.1659 323.04 48.7257C326.704 44.5998 332.048 42 338 42C340.036 42 342.002 42.3043 343.853 42.87C349.344 44.8692 354.063 49.2563 356.03 55.2164C356.03 55.2164 345.27 59.4237 339.5 63.8754C333.964 68.1465 327.346 77.0223 327.346 77.0223Z" fill="#E31E24"/>
<path d="M327.346 77.0223C336.509 82.7133 346.562 80.9314 353.335 72.4144C356.787 68.0744 357.909 60.9114 356.03 55.2164C356.03 55.2164 345.27 59.4237 339.5 63.8754C333.964 68.1465 327.346 77.0223 327.346 77.0223Z" fill="#C71C2A"/>
<path d="M201 38.9024C201 41.2554 200.327 44.1414 199.505 45.3154C198.791 46.3348 198.499 47.006 198.948 48.3316C200.879 45.3576 202 41.8098 202 38C202 36.8734 201.902 35.7698 201.714 34.6971C201.309 35.0662 201 36.8163 201 38.9024Z" fill="#E31E24"/>
<path d="M166.509 46.6354C165.484 45.5034 164.499 42.4654 164.222 39.5854L164.01 37.3777C164.003 37.5843 164 37.7918 164 38C164 42.1818 165.351 46.048 167.64 49.1861C168.01 48.4388 167.651 47.8974 166.509 46.6354Z" fill="#E31E24"/>
<path d="M265.728 131.793C267.737 133.357 270.052 134.545 272.569 135.254L265.728 131.793Z" fill="#E31E24"/>
<path fill-rule="evenodd" clip-rule="evenodd" d="M323.04 48.7257C326.704 44.5998 332.048 42 338 42C340.036 42 342.002 42.3043 343.853 42.87C338.89 41.063 333.296 41.2068 328.535 43.9034C326.402 45.1117 324.543 46.7675 323.04 48.7257Z" fill="#020F16"/>
<path fill-rule="evenodd" clip-rule="evenodd" d="M227 157C227 158.689 226.905 160.355 226.72 161.995C226.903 159.579 226.909 157 226.754 154.185C226.63 151.932 226.391 149.795 226.028 147.76C226.665 150.74 227 153.831 227 157ZM217.723 129.973C218.606 131.105 219.435 132.283 220.205 133.5C222.931 137.805 224.929 142.616 226.028 147.76C224.794 140.834 222.133 135.089 217.723 129.973ZM218.061 183.589C218.942 182.464 219.784 181.282 220.58 180.043C224.281 174.284 226.203 168.79 226.72 161.995C225.809 170.052 222.722 177.452 218.061 183.589ZM170.545 137.17C173.251 134.465 173.662 131.829 171.75 129.456C169.891 127.149 167.577 126.653 164.893 127.987C162.033 129.409 159.793 135.319 161.145 137.875C162.528 140.49 167.606 140.11 170.545 137.17Z" fill="#020F16"/>
</svg>
