<svg width="36" height="36" viewBox="0 0 36 36" fill="none" xmlns="http://www.w3.org/2000/svg">
<g clip-path="url(#clip0_201_23)">
<path d="M20.39 27.6604L30 18.0004L20.39 8.34045C20.3032 8.22647 20.1929 8.13248 20.0667 8.06483C19.9404 7.99717 19.8011 7.95744 19.6581 7.94832C19.5151 7.9392 19.3719 7.9609 19.238 8.01196C19.1042 8.06301 18.9828 8.14223 18.8823 8.24425C18.7817 8.34627 18.7042 8.46871 18.6551 8.60327C18.6059 8.73784 18.5863 8.88139 18.5975 9.02421C18.6086 9.16703 18.6503 9.30579 18.7198 9.43108C18.7892 9.55638 18.8848 9.66529 19 9.75045L26.19 17.0004L7.06 17.0004C6.79478 17.0004 6.54043 17.1058 6.35289 17.2933C6.16536 17.4809 6.06 17.7352 6.06 18.0004C6.06 18.2657 6.16536 18.52 6.35289 18.7076C6.54043 18.8951 6.79478 19.0004 7.06 19.0004L26.19 19.0004L19 26.2504C18.813 26.4388 18.7085 26.6936 18.7094 26.959C18.7104 27.2243 18.8167 27.4785 19.005 27.6654C19.1933 27.8524 19.4482 27.9569 19.7135 27.956C19.9789 27.9551 20.233 27.8488 20.42 27.6604L20.39 27.6604Z" fill="black"/>
</g>
<defs>
<clipPath id="clip0_201_23">
<rect width="36" height="36" fill="white" transform="translate(36) rotate(90)"/>
</clipPath>
</defs>
</svg>
