<svg width="44" height="44" viewBox="0 0 44 44" fill="none" xmlns="http://www.w3.org/2000/svg">
<path d="M40.7611 11.8983C38.9783 18.8537 35.3587 25.2022 30.2812 30.2793C25.2037 35.3565 18.8549 38.9758 11.899 40.7585C6.54704 42.1208 2 37.5191 2 31.995V29.4954C2 28.1156 3.12239 27.0083 4.49725 26.8708C6.77248 26.6463 9.00582 26.1088 11.1341 25.2736L14.9337 29.073C21.1204 26.1076 26.1092 21.1191 29.0748 14.9328L25.2752 11.1335C26.1115 9.00469 26.6498 6.77063 26.875 4.49458C27.01 3.11981 28.1174 2 29.4972 2H31.997C37.5164 2 42.1209 6.54674 40.7586 11.8983H40.7611Z" stroke="#E1E1E1" stroke-width="4" stroke-linecap="round" stroke-linejoin="round"/>
</svg>
