<svg width="30" height="40" viewBox="0 0 30 40" fill="none" xmlns="http://www.w3.org/2000/svg">
<path d="M15 3.75C19.125 3.75 22.5 7.125 22.5 11.25C22.5 15.1875 18.5625 21.5625 15 26.0625C11.4375 21.375 7.5 15.1875 7.5 11.25C7.5 7.125 10.875 3.75 15 3.75ZM15 0C8.8125 0 3.75 5.0625 3.75 11.25C3.75 19.6875 15 31.875 15 31.875C15 31.875 26.25 19.5 26.25 11.25C26.25 5.0625 21.1875 0 15 0ZM15 7.5C12.9375 7.5 11.25 9.1875 11.25 11.25C11.25 13.3125 12.9375 15 15 15C17.0625 15 18.75 13.3125 18.75 11.25C18.75 9.1875 17.0625 7.5 15 7.5ZM30 31.875C30 36 23.25 39.375 15 39.375C6.75 39.375 0 36 0 31.875C0 29.4375 2.25 27.375 5.8125 25.875L6.9375 27.5625C5.0625 28.5 3.75 29.625 3.75 30.9375C3.75 33.5625 8.8125 35.625 15 35.625C21.1875 35.625 26.25 33.5625 26.25 30.9375C26.25 29.625 24.9375 28.5 22.875 27.5625L24 25.875C27.75 27.375 30 29.4375 30 31.875Z" fill="#E1E1E1"/>
</svg>
